<svg width="131" height="42" viewBox="0 0 131 42" fill="none" xmlns="http://www.w3.org/2000/svg">
<path d="M15.7929 9.59521V9.59626C15.776 9.62534 12.2955 15.6292 7.95067 22.9595C3.59532 30.3077 0 36.1906 0 36.1906L12.3315 36.1365L12.3323 36.1364L12.3297 36.1459C18.3172 36.03 23.7182 32.0934 25.3119 26.1453C25.8102 24.286 25.8853 22.4143 25.5964 20.6255C24.8043 15.3582 20.9149 11.0745 15.7929 9.59521Z" fill="black"/>
<path d="M22.6074 5.80933V5.81037C22.5905 5.83945 19.1099 11.8433 14.7651 19.1736C10.4098 26.5218 6.81445 32.4047 6.81445 32.4047L19.1459 32.3506L19.1467 32.3505L19.1442 32.36C25.1317 32.2441 30.5326 28.3075 32.1264 22.3594C32.6246 20.5001 32.6998 18.6284 32.4108 16.8396C31.6187 11.5724 27.7294 7.28859 22.6074 5.80933Z" fill="#10F2C5"/>
<path d="M48.6476 30H42.1851V11.7696H48.701C50.5347 11.7696 52.1132 12.1346 53.4366 12.8645C54.76 13.5885 55.7777 14.63 56.4898 15.989C57.2079 17.3479 57.5669 18.974 57.5669 20.867C57.5669 22.766 57.2079 24.398 56.4898 25.7629C55.7777 27.1278 54.754 28.1752 53.4188 28.9051C52.0895 29.635 50.4991 30 48.6476 30ZM46.0394 26.6975H48.4874C49.6267 26.6975 50.5851 26.4958 51.3625 26.0922C52.1459 25.6828 52.7334 25.0507 53.1251 24.1962C53.5227 23.3357 53.7215 22.226 53.7215 20.867C53.7215 19.5199 53.5227 18.4191 53.1251 17.5645C52.7334 16.71 52.1489 16.081 51.3714 15.6774C50.594 15.2739 49.6356 15.0721 48.4963 15.0721H46.0394V26.6975ZM65.3891 30.2225C64.3506 30.2225 63.41 29.9555 62.5674 29.4214C61.7306 28.8814 61.066 28.0891 60.5734 27.0447C60.0868 25.9943 59.8435 24.7066 59.8435 23.1814C59.8435 21.6147 60.0957 20.3122 60.6001 19.2736C61.1045 18.2292 61.7751 17.4488 62.6119 16.9325C63.4545 16.4103 64.3773 16.1492 65.3802 16.1492C66.1458 16.1492 66.7837 16.2798 67.2941 16.5409C67.8104 16.796 68.2258 17.1165 68.5403 17.5022C68.8607 17.882 69.1041 18.2559 69.2702 18.6238H69.3859V11.7696H73.1691V30H69.4304V27.8102H69.2702C69.0922 28.19 68.84 28.5669 68.5136 28.9407C68.1931 29.3086 67.7748 29.6143 67.2585 29.8576C66.7481 30.1009 66.125 30.2225 65.3891 30.2225ZM66.5909 27.2049C67.2021 27.2049 67.7184 27.0388 68.1397 26.7064C68.567 26.3682 68.8934 25.8964 69.1189 25.2911C69.3503 24.6858 69.4661 23.9766 69.4661 23.1636C69.4661 22.3506 69.3533 21.6444 69.1278 21.0451C68.9023 20.4457 68.5759 19.9828 68.1486 19.6564C67.7214 19.33 67.2021 19.1668 66.5909 19.1668C65.9677 19.1668 65.4426 19.336 65.0153 19.6742C64.588 20.0125 64.2646 20.4813 64.045 21.0807C63.8254 21.68 63.7157 22.3743 63.7157 23.1636C63.7157 23.9588 63.8254 24.662 64.045 25.2733C64.2705 25.8786 64.5939 26.3533 65.0153 26.6975C65.4426 27.0358 65.9677 27.2049 66.5909 27.2049ZM87.663 20.2261L84.1914 20.4397C84.1321 20.143 84.0045 19.876 83.8087 19.6386C83.6128 19.3953 83.3547 19.2024 83.0342 19.06C82.7197 18.9116 82.3429 18.8375 81.9037 18.8375C81.3162 18.8375 80.8207 18.9621 80.4172 19.2113C80.0136 19.4546 79.8119 19.781 79.8119 20.1905C79.8119 20.5169 79.9424 20.7928 80.2035 21.0183C80.4646 21.2439 80.9127 21.4248 81.5477 21.5613L84.0223 22.0598C85.3516 22.3328 86.3426 22.7719 86.9954 23.3773C87.6482 23.9826 87.9746 24.7778 87.9746 25.7629C87.9746 26.659 87.7105 27.4453 87.1823 28.1218C86.6601 28.7983 85.9421 29.3265 85.0282 29.7062C84.1202 30.0801 83.0728 30.267 81.8859 30.267C80.0759 30.267 78.6339 29.8902 77.5598 29.1366C76.4916 28.377 75.8655 27.3444 75.6816 26.0388L79.4113 25.843C79.5241 26.3949 79.797 26.8162 80.2302 27.107C80.6635 27.3918 81.2183 27.5343 81.8948 27.5343C82.5595 27.5343 83.0936 27.4067 83.4971 27.1515C83.9066 26.8904 84.1143 26.5551 84.1202 26.1456C84.1143 25.8014 83.9689 25.5196 83.684 25.3C83.3992 25.0745 82.96 24.9024 82.3666 24.7837L79.9988 24.3119C78.6636 24.0449 77.6696 23.582 77.0168 22.9233C76.3699 22.2646 76.0465 21.4248 76.0465 20.4041C76.0465 19.5259 76.2839 18.7692 76.7586 18.1342C77.2393 17.4993 77.9129 17.0097 78.7793 16.6655C79.6516 16.3213 80.6724 16.1492 81.8414 16.1492C83.5683 16.1492 84.9273 16.5142 85.9183 17.2441C86.9153 17.974 87.4969 18.968 87.663 20.2261ZM96.5223 35.4121C95.2939 35.4121 94.2405 35.243 93.3622 34.9047C92.4899 34.5724 91.7956 34.1184 91.2793 33.5428C90.763 32.9672 90.4277 32.3203 90.2734 31.6023L93.7806 31.1305C93.8874 31.4035 94.0566 31.6587 94.288 31.896C94.5194 32.1334 94.8251 32.3233 95.2049 32.4657C95.5906 32.6141 96.0594 32.6883 96.6113 32.6883C97.4362 32.6883 98.1157 32.4865 98.6498 32.083C99.1898 31.6854 99.4598 31.0177 99.4598 30.0801V27.5788H99.2996C99.1334 27.9586 98.8842 28.3176 98.5518 28.6559C98.2195 28.9941 97.7922 29.2701 97.27 29.4837C96.7478 29.6973 96.1247 29.8042 95.4007 29.8042C94.374 29.8042 93.4394 29.5668 92.5967 29.092C91.76 28.6114 91.0923 27.8785 90.5939 26.8934C90.1013 25.9023 89.855 24.6502 89.855 23.1369C89.855 21.588 90.1072 20.2944 90.6117 19.2558C91.1161 18.2173 91.7867 17.4399 92.6234 16.9236C93.4661 16.4073 94.3889 16.1492 95.3918 16.1492C96.1573 16.1492 96.7982 16.2798 97.3145 16.5409C97.8308 16.796 98.2462 17.1165 98.5607 17.5022C98.8812 17.882 99.1275 18.2559 99.2996 18.6238H99.442V16.3272H103.207V30.1335C103.207 31.2967 102.922 32.2699 102.353 33.0532C101.783 33.8366 100.994 34.4241 99.985 34.8157C98.9821 35.2133 97.8278 35.4121 96.5223 35.4121ZM96.6024 26.9557C97.2136 26.9557 97.7299 26.8043 98.1513 26.5017C98.5785 26.1931 98.9049 25.754 99.1304 25.1843C99.3619 24.6086 99.4776 23.9202 99.4776 23.1191C99.4776 22.318 99.3648 21.6237 99.1393 21.0361C98.9138 20.4427 98.5874 19.9828 98.1602 19.6564C97.7329 19.33 97.2136 19.1668 96.6024 19.1668C95.9793 19.1668 95.4541 19.336 95.0268 19.6742C94.5996 20.0065 94.2761 20.4694 94.0566 21.0629C93.837 21.6563 93.7272 22.3417 93.7272 23.1191C93.7272 23.9084 93.837 24.5908 94.0566 25.1665C94.2821 25.7362 94.6055 26.1783 95.0268 26.4928C95.4541 26.8014 95.9793 26.9557 96.6024 26.9557ZM110.017 22.0954V30H106.225V16.3272H109.839V18.7396H109.999C110.302 17.9443 110.809 17.3153 111.521 16.8524C112.234 16.3836 113.097 16.1492 114.112 16.1492C115.061 16.1492 115.889 16.3569 116.595 16.7723C117.301 17.1877 117.85 17.7812 118.242 18.5526C118.634 19.3182 118.83 20.232 118.83 21.2943V30H115.037V21.9708C115.043 21.1341 114.83 20.4813 114.397 20.0125C113.963 19.5377 113.367 19.3003 112.607 19.3003C112.097 19.3003 111.646 19.4101 111.254 19.6297C110.869 19.8493 110.566 20.1697 110.346 20.5911C110.133 21.0065 110.023 21.5079 110.017 22.0954ZM121.818 30V16.3272H125.495V18.7128H125.637C125.886 17.8642 126.305 17.2233 126.892 16.7901C127.48 16.351 128.156 16.1314 128.922 16.1314C129.112 16.1314 129.316 16.1433 129.536 16.167C129.755 16.1907 129.948 16.2234 130.114 16.2649V19.6297C129.936 19.5763 129.69 19.5288 129.376 19.4873C129.061 19.4457 128.773 19.425 128.512 19.425C127.954 19.425 127.456 19.5466 127.017 19.7899C126.584 20.0273 126.239 20.3596 125.984 20.7869C125.735 21.2142 125.61 21.7067 125.61 22.2646V30H121.818Z" fill="black"/>
</svg>
