<svg width="24" height="25" viewBox="0 0 24 25" fill="none" xmlns="http://www.w3.org/2000/svg">
<path fill-rule="evenodd" clip-rule="evenodd" d="M12 3.67871C7.03145 3.67871 3 7.71016 3 12.6787C3 17.6473 7.03145 21.6787 12 21.6787C16.9588 21.6787 21 17.6473 21 12.6787C21 7.71016 16.9588 3.67871 12 3.67871ZM17.9447 7.8273C19.0184 9.13533 19.6627 10.8045 19.6822 12.6104C19.4284 12.5616 16.8904 12.0442 14.333 12.3663C14.2744 12.2394 14.2256 12.1028 14.167 11.9661C14.0108 11.5952 13.8352 11.2145 13.6594 10.8533C16.4902 9.70151 17.7787 8.04205 17.9447 7.8273ZM12 5.00626C13.9523 5.00626 15.7386 5.73837 17.0955 6.93902C16.9588 7.13424 15.7972 8.6863 13.064 9.71124C11.8048 7.3978 10.4089 5.50409 10.1942 5.21125C10.77 5.07459 11.3753 5.00626 12 5.00626ZM8.72996 5.7286C8.93494 6.00192 10.3015 7.90539 11.5803 10.17C7.98807 11.1267 4.81562 11.1071 4.47397 11.1071C4.9718 8.72535 6.58243 6.74378 8.72996 5.7286ZM4.30803 12.6885C4.30803 12.6104 4.30803 12.5323 4.30803 12.4542C4.63991 12.4639 8.36876 12.5128 12.205 11.3609C12.4295 11.7904 12.6345 12.2297 12.8297 12.6689C12.7321 12.6982 12.6247 12.7275 12.5271 12.7568C8.56399 14.0355 6.45553 17.5301 6.27983 17.8229C5.05965 16.4661 4.30803 14.6603 4.30803 12.6885ZM12 20.3707C10.2234 20.3707 8.58352 19.7655 7.28525 18.7503C7.42191 18.4672 8.98371 15.4607 13.3178 13.9477C13.3373 13.9379 13.3471 13.9379 13.3666 13.9282C14.4501 16.7297 14.8894 19.0821 15.0065 19.7557C14.0792 20.1559 13.064 20.3707 12 20.3707ZM16.2852 19.0529C16.2072 18.5843 15.7972 16.3392 14.7917 13.5767C17.2028 13.196 19.3113 13.8208 19.5749 13.9087C19.243 16.0464 18.013 17.8913 16.2852 19.0529Z" fill="black"/>
</svg>
